ply
format ascii 1.0
comment Created by Blender 2.78 (sub 0) - www.blender.org, source file: 'shield.blend'
element vertex 276
property float x
property float y
property float z
property float nx
property float ny
property float nz
element face 78
property list uchar uint vertex_indices
end_header
0.778523 0.000000 0.500000 -0.889813 0.161299 -0.426867
0.696950 -0.450000 0.500000 -0.889813 0.161299 -0.426867
0.577018 -0.450000 0.750000 -0.889813 0.161299 -0.426867
0.658591 0.000000 0.750000 -0.889813 0.161299 -0.426867
0.696950 -0.450000 0.500000 -0.780484 0.500655 -0.374419
0.552620 -0.675000 0.500000 -0.780484 0.500655 -0.374419
0.432688 -0.675000 0.750000 -0.780484 0.500655 -0.374419
0.577018 -0.450000 0.750000 -0.780484 0.500655 -0.374419
0.410211 -1.000000 0.500000 0.611974 -0.734369 0.293581
0.710211 -0.750000 0.500000 0.611974 -0.734369 0.293581
0.590279 -0.750000 0.750000 0.611974 -0.734369 0.293581
0.290279 -1.000000 0.750000 0.611974 -0.734369 0.293581
0.710211 -0.750000 0.500000 0.639355 -0.767226 0.050878
0.410211 -1.000000 0.500000 0.639355 -0.767226 0.050878
0.450000 -1.000000 0.000000 0.639355 -0.767226 0.050878
0.750000 -0.750000 0.000000 0.639355 -0.767226 0.050878
0.552620 -0.675000 0.500000 -0.839829 0.538722 -0.066831
0.696950 -0.450000 0.500000 -0.839829 0.538722 -0.066831
0.736739 -0.450000 0.000000 -0.839829 0.538722 -0.066831
0.592409 -0.675000 0.000000 -0.839829 0.538722 -0.066831
0.696950 -0.450000 0.500000 -0.980962 0.177822 -0.078062
0.778523 0.000000 0.500000 -0.980962 0.177822 -0.078062
0.818311 0.000000 0.000000 -0.980962 0.177822 -0.078062
0.736739 -0.450000 0.000000 -0.980962 0.177822 -0.078062
0.272465 -0.900000 0.500000 -0.625404 0.778712 -0.049768
0.552620 -0.675000 0.500000 -0.625404 0.778712 -0.049768
0.592409 -0.675000 0.000000 -0.625404 0.778712 -0.049768
0.312253 -0.900000 0.000000 -0.625404 0.778712 -0.049768
0.410211 -1.000000 0.500000 -0.586844 -0.808352 -0.046699
0.272465 -0.900000 0.500000 -0.586844 -0.808352 -0.046699
0.312253 -0.900000 0.000000 -0.586844 -0.808352 -0.046699
0.450000 -1.000000 0.000000 -0.586844 -0.808352 -0.046699
0.860211 -0.500000 0.500000 0.855503 -0.513302 0.068079
0.710211 -0.750000 0.500000 0.855503 -0.513302 0.068079
0.750000 -0.750000 0.000000 0.855503 -0.513302 0.068079
0.900000 -0.500000 0.000000 0.855503 -0.513302 0.068079
0.960211 0.000000 0.500000 0.977609 -0.195522 0.077795
0.860211 -0.500000 0.500000 0.977609 -0.195522 0.077795
0.900000 -0.500000 0.000000 0.977609 -0.195522 0.077795
1.000000 0.000000 0.000000 0.977609 -0.195522 0.077795
0.577018 -0.450000 0.750000 0.000000 0.000000 1.000000
0.432688 -0.675000 0.750000 0.000000 0.000000 1.000000
0.590279 -0.750000 0.750000 0.000000 0.000000 1.000000
0.740279 -0.500000 0.750000 0.000000 0.000000 1.000000
0.840279 0.000000 0.750000 -0.000000 0.000000 1.000000
0.658591 0.000000 0.750000 -0.000000 0.000000 1.000000
0.152533 -0.900000 0.750000 0.000000 -0.000000 1.000000
0.290279 -1.000000 0.750000 0.000000 -0.000000 1.000000
0.552620 -0.675000 0.500000 -0.599706 0.746715 -0.287695
0.272465 -0.900000 0.500000 -0.599706 0.746715 -0.287695
0.152533 -0.900000 0.750000 -0.599706 0.746715 -0.287695
0.432688 -0.675000 0.750000 -0.599706 0.746715 -0.287695
0.272465 -0.900000 0.500000 -0.565457 -0.778893 -0.271265
0.410211 -1.000000 0.500000 -0.565457 -0.778893 -0.271265
0.290279 -1.000000 0.750000 -0.565457 -0.778893 -0.271265
0.152533 -0.900000 0.750000 -0.565457 -0.778893 -0.271265
0.710211 -0.750000 0.500000 0.793017 -0.475810 0.380432
0.860211 -0.500000 0.500000 0.793017 -0.475810 0.380432
0.740279 -0.500000 0.750000 0.793017 -0.475810 0.380432
0.590279 -0.750000 0.750000 0.793017 -0.475810 0.380432
0.860211 -0.500000 0.500000 0.887308 -0.177462 0.425666
0.960211 0.000000 0.500000 0.887308 -0.177462 0.425666
0.840279 0.000000 0.750000 0.887308 -0.177462 0.425666
0.740279 -0.500000 0.750000 0.887308 -0.177462 0.425666
0.778523 0.000000 0.500000 -0.889813 -0.161299 -0.426867
0.658591 0.000000 0.750000 -0.889813 -0.161299 -0.426867
0.577018 0.450000 0.750000 -0.889813 -0.161299 -0.426867
0.696950 0.450000 0.500000 -0.889813 -0.161299 -0.426867
0.696950 0.450000 0.500000 -0.780484 -0.500655 -0.374419
0.577018 0.450000 0.750000 -0.780484 -0.500655 -0.374419
0.432688 0.675000 0.750000 -0.780484 -0.500655 -0.374419
0.552620 0.675000 0.500000 -0.780484 -0.500655 -0.374419
0.410211 1.000000 0.500000 0.611974 0.734369 0.293581
0.290279 1.000000 0.750000 0.611974 0.734369 0.293581
0.590279 0.750000 0.750000 0.611974 0.734369 0.293581
0.710211 0.750000 0.500000 0.611974 0.734369 0.293581
0.710211 0.750000 0.500000 0.639355 0.767226 0.050878
0.750000 0.750000 0.000000 0.639355 0.767226 0.050878
0.450000 1.000000 0.000000 0.639355 0.767226 0.050878
0.410211 1.000000 0.500000 0.639355 0.767226 0.050878
0.552620 0.675000 0.500000 -0.839829 -0.538722 -0.066831
0.592409 0.675000 0.000000 -0.839829 -0.538722 -0.066831
0.736739 0.450000 0.000000 -0.839829 -0.538722 -0.066831
0.696950 0.450000 0.500000 -0.839829 -0.538722 -0.066831
0.696950 0.450000 0.500000 -0.980962 -0.177822 -0.078062
0.736739 0.450000 0.000000 -0.980962 -0.177822 -0.078062
0.818311 0.000000 0.000000 -0.980962 -0.177822 -0.078062
0.778523 0.000000 0.500000 -0.980962 -0.177822 -0.078062
0.272465 0.900000 0.500000 -0.625404 -0.778712 -0.049768
0.312253 0.900000 0.000000 -0.625404 -0.778712 -0.049768
0.592409 0.675000 0.000000 -0.625404 -0.778712 -0.049768
0.552620 0.675000 0.500000 -0.625404 -0.778712 -0.049768
0.410211 1.000000 0.500000 -0.586844 0.808352 -0.046699
0.450000 1.000000 0.000000 -0.586844 0.808352 -0.046699
0.312253 0.900000 0.000000 -0.586844 0.808352 -0.046699
0.272465 0.900000 0.500000 -0.586844 0.808352 -0.046699
0.860211 0.500000 0.500000 0.855503 0.513302 0.068079
0.900000 0.500000 0.000000 0.855503 0.513302 0.068079
0.750000 0.750000 0.000000 0.855503 0.513302 0.068079
0.710211 0.750000 0.500000 0.855503 0.513302 0.068079
0.960211 0.000000 0.500000 0.977609 0.195522 0.077795
1.000000 0.000000 0.000000 0.977609 0.195522 0.077795
0.900000 0.500000 0.000000 0.977609 0.195522 0.077795
0.860211 0.500000 0.500000 0.977609 0.195522 0.077795
0.778523 0.000000 0.500000 -0.000000 -1.000000 0.000000
0.818311 0.000000 0.000000 -0.000000 -1.000000 0.000000
1.000000 0.000000 0.000000 -0.000000 -1.000000 0.000000
0.960211 0.000000 0.500000 -0.000000 -1.000000 0.000000
0.577018 0.450000 0.750000 0.000000 0.000000 1.000000
0.740279 0.500000 0.750000 0.000000 0.000000 1.000000
0.590279 0.750000 0.750000 0.000000 0.000000 1.000000
0.432688 0.675000 0.750000 0.000000 0.000000 1.000000
0.290279 1.000000 0.750000 0.000000 0.000000 1.000000
0.152533 0.900000 0.750000 0.000000 0.000000 1.000000
0.552620 0.675000 0.500000 -0.599706 -0.746715 -0.287695
0.432688 0.675000 0.750000 -0.599706 -0.746715 -0.287695
0.152533 0.900000 0.750000 -0.599706 -0.746715 -0.287695
0.272465 0.900000 0.500000 -0.599706 -0.746715 -0.287695
0.272465 0.900000 0.500000 -0.565457 0.778893 -0.271265
0.152533 0.900000 0.750000 -0.565457 0.778893 -0.271265
0.290279 1.000000 0.750000 -0.565457 0.778893 -0.271265
0.410211 1.000000 0.500000 -0.565457 0.778893 -0.271265
0.710211 0.750000 0.500000 0.793017 0.475810 0.380432
0.590279 0.750000 0.750000 0.793017 0.475810 0.380432
0.740279 0.500000 0.750000 0.793017 0.475810 0.380432
0.860211 0.500000 0.500000 0.793017 0.475810 0.380432
0.860211 0.500000 0.500000 0.887308 0.177462 0.425666
0.740279 0.500000 0.750000 0.887308 0.177462 0.425666
0.840279 0.000000 0.750000 0.887308 0.177462 0.425666
0.960211 0.000000 0.500000 0.887308 0.177462 0.425666
0.840279 0.000000 0.750000 0.000000 -1.000000 0.000000
0.658591 0.000000 0.750000 0.000000 -1.000000 0.000000
0.778523 0.000000 -0.500000 -0.889813 0.161299 0.426867
0.658591 0.000000 -0.750000 -0.889813 0.161299 0.426867
0.577018 -0.450000 -0.750000 -0.889813 0.161299 0.426867
0.696950 -0.450000 -0.500000 -0.889813 0.161299 0.426867
0.696950 -0.450000 -0.500000 -0.780484 0.500655 0.374419
0.577018 -0.450000 -0.750000 -0.780484 0.500655 0.374419
0.432688 -0.675000 -0.750000 -0.780484 0.500655 0.374419
0.552620 -0.675000 -0.500000 -0.780484 0.500655 0.374419
0.410211 -1.000000 -0.500000 0.611974 -0.734369 -0.293581
0.290279 -1.000000 -0.750000 0.611974 -0.734369 -0.293581
0.590279 -0.750000 -0.750000 0.611974 -0.734369 -0.293581
0.710211 -0.750000 -0.500000 0.611974 -0.734369 -0.293581
0.736739 -0.450000 0.000000 0.000000 0.000000 1.000000
0.592409 -0.675000 0.000000 0.000000 0.000000 1.000000
0.750000 -0.750000 0.000000 0.000000 0.000000 1.000000
0.900000 -0.500000 0.000000 0.000000 0.000000 1.000000
1.000000 0.000000 0.000000 -0.000000 0.000000 1.000000
0.818311 0.000000 0.000000 -0.000000 0.000000 1.000000
0.312253 -0.900000 0.000000 0.000000 -0.000000 1.000000
0.450000 -1.000000 0.000000 0.000000 -0.000000 1.000000
0.710211 -0.750000 -0.500000 0.639355 -0.767226 -0.050878
0.750000 -0.750000 0.000000 0.639355 -0.767226 -0.050878
0.450000 -1.000000 0.000000 0.639355 -0.767226 -0.050878
0.410211 -1.000000 -0.500000 0.639355 -0.767226 -0.050878
0.552620 -0.675000 -0.500000 -0.839829 0.538722 0.066831
0.592409 -0.675000 0.000000 -0.839829 0.538722 0.066831
0.736739 -0.450000 0.000000 -0.839829 0.538722 0.066831
0.696950 -0.450000 -0.500000 -0.839829 0.538722 0.066831
0.696950 -0.450000 -0.500000 -0.980962 0.177822 0.078062
0.736739 -0.450000 0.000000 -0.980962 0.177822 0.078062
0.818311 0.000000 0.000000 -0.980962 0.177822 0.078062
0.778523 0.000000 -0.500000 -0.980962 0.177822 0.078062
0.272465 -0.900000 -0.500000 -0.625404 0.778712 0.049768
0.312253 -0.900000 0.000000 -0.625404 0.778712 0.049768
0.592409 -0.675000 0.000000 -0.625404 0.778712 0.049768
0.552620 -0.675000 -0.500000 -0.625404 0.778712 0.049768
0.410211 -1.000000 -0.500000 -0.586844 -0.808352 0.046699
0.450000 -1.000000 0.000000 -0.586844 -0.808352 0.046699
0.312253 -0.900000 0.000000 -0.586844 -0.808352 0.046699
0.272465 -0.900000 -0.500000 -0.586844 -0.808352 0.046699
0.860211 -0.500000 -0.500000 0.855503 -0.513302 -0.068079
0.900000 -0.500000 0.000000 0.855503 -0.513302 -0.068079
0.750000 -0.750000 0.000000 0.855503 -0.513302 -0.068079
0.710211 -0.750000 -0.500000 0.855503 -0.513302 -0.068079
0.960211 0.000000 -0.500000 0.977609 -0.195522 -0.077795
1.000000 0.000000 0.000000 0.977609 -0.195522 -0.077795
0.900000 -0.500000 0.000000 0.977609 -0.195522 -0.077795
0.860211 -0.500000 -0.500000 0.977609 -0.195522 -0.077795
0.577018 -0.450000 -0.750000 0.000000 0.000000 -1.000000
0.740279 -0.500000 -0.750000 0.000000 0.000000 -1.000000
0.590279 -0.750000 -0.750000 0.000000 0.000000 -1.000000
0.432688 -0.675000 -0.750000 0.000000 0.000000 -1.000000
0.658591 0.000000 -0.750000 0.000000 -0.000000 -1.000000
0.840279 0.000000 -0.750000 0.000000 -0.000000 -1.000000
0.290279 -1.000000 -0.750000 0.000000 0.000000 -1.000000
0.152533 -0.900000 -0.750000 0.000000 0.000000 -1.000000
0.552620 -0.675000 -0.500000 -0.599706 0.746715 0.287695
0.432688 -0.675000 -0.750000 -0.599706 0.746715 0.287695
0.152533 -0.900000 -0.750000 -0.599706 0.746715 0.287695
0.272465 -0.900000 -0.500000 -0.599706 0.746715 0.287695
0.272465 -0.900000 -0.500000 -0.565457 -0.778893 0.271265
0.152533 -0.900000 -0.750000 -0.565457 -0.778893 0.271265
0.290279 -1.000000 -0.750000 -0.565457 -0.778893 0.271265
0.410211 -1.000000 -0.500000 -0.565457 -0.778893 0.271265
0.710211 -0.750000 -0.500000 0.793017 -0.475810 -0.380432
0.590279 -0.750000 -0.750000 0.793017 -0.475810 -0.380432
0.740279 -0.500000 -0.750000 0.793017 -0.475810 -0.380432
0.860211 -0.500000 -0.500000 0.793017 -0.475810 -0.380432
0.860211 -0.500000 -0.500000 0.887308 -0.177462 -0.425666
0.740279 -0.500000 -0.750000 0.887308 -0.177462 -0.425666
0.840279 0.000000 -0.750000 0.887308 -0.177462 -0.425666
0.960211 0.000000 -0.500000 0.887308 -0.177462 -0.425666
0.778523 0.000000 -0.500000 -0.889813 -0.161299 0.426867
0.696950 0.450000 -0.500000 -0.889813 -0.161299 0.426867
0.577018 0.450000 -0.750000 -0.889813 -0.161299 0.426867
0.658591 0.000000 -0.750000 -0.889813 -0.161299 0.426867
0.696950 0.450000 -0.500000 -0.780484 -0.500655 0.374419
0.552620 0.675000 -0.500000 -0.780484 -0.500655 0.374419
0.432688 0.675000 -0.750000 -0.780484 -0.500655 0.374419
0.577018 0.450000 -0.750000 -0.780484 -0.500655 0.374419
0.410211 1.000000 -0.500000 0.611974 0.734369 -0.293581
0.710211 0.750000 -0.500000 0.611974 0.734369 -0.293581
0.590279 0.750000 -0.750000 0.611974 0.734369 -0.293581
0.290279 1.000000 -0.750000 0.611974 0.734369 -0.293581
0.736739 0.450000 0.000000 0.000000 0.000000 1.000000
0.900000 0.500000 0.000000 0.000000 0.000000 1.000000
0.750000 0.750000 0.000000 0.000000 0.000000 1.000000
0.592409 0.675000 0.000000 0.000000 0.000000 1.000000
0.450000 1.000000 0.000000 0.000000 0.000000 1.000000
0.312253 0.900000 0.000000 0.000000 0.000000 1.000000
0.710211 0.750000 -0.500000 0.639355 0.767226 -0.050878
0.410211 1.000000 -0.500000 0.639355 0.767226 -0.050878
0.450000 1.000000 0.000000 0.639355 0.767226 -0.050878
0.750000 0.750000 0.000000 0.639355 0.767226 -0.050878
0.552620 0.675000 -0.500000 -0.839829 -0.538722 0.066831
0.696950 0.450000 -0.500000 -0.839829 -0.538722 0.066831
0.736739 0.450000 0.000000 -0.839829 -0.538722 0.066831
0.592409 0.675000 0.000000 -0.839829 -0.538722 0.066831
0.696950 0.450000 -0.500000 -0.980962 -0.177822 0.078062
0.778523 0.000000 -0.500000 -0.980962 -0.177822 0.078062
0.818311 0.000000 0.000000 -0.980962 -0.177822 0.078062
0.736739 0.450000 0.000000 -0.980962 -0.177822 0.078062
0.272465 0.900000 -0.500000 -0.625404 -0.778712 0.049768
0.552620 0.675000 -0.500000 -0.625404 -0.778712 0.049768
0.592409 0.675000 0.000000 -0.625404 -0.778712 0.049768
0.312253 0.900000 0.000000 -0.625404 -0.778712 0.049768
0.410211 1.000000 -0.500000 -0.586844 0.808352 0.046699
0.272465 0.900000 -0.500000 -0.586844 0.808352 0.046699
0.312253 0.900000 0.000000 -0.586844 0.808352 0.046699
0.450000 1.000000 0.000000 -0.586844 0.808352 0.046699
0.860211 0.500000 -0.500000 0.855503 0.513302 -0.068079
0.710211 0.750000 -0.500000 0.855503 0.513302 -0.068079
0.750000 0.750000 0.000000 0.855503 0.513302 -0.068079
0.900000 0.500000 0.000000 0.855503 0.513302 -0.068079
0.960211 0.000000 -0.500000 0.977609 0.195522 -0.077795
0.860211 0.500000 -0.500000 0.977609 0.195522 -0.077795
0.900000 0.500000 0.000000 0.977609 0.195522 -0.077795
1.000000 0.000000 0.000000 0.977609 0.195522 -0.077795
0.778523 0.000000 -0.500000 0.000000 -1.000000 -0.000000
0.960211 0.000000 -0.500000 0.000000 -1.000000 -0.000000
0.577018 0.450000 -0.750000 -0.000000 0.000000 -1.000000
0.432688 0.675000 -0.750000 -0.000000 0.000000 -1.000000
0.590279 0.750000 -0.750000 -0.000000 0.000000 -1.000000
0.740279 0.500000 -0.750000 -0.000000 0.000000 -1.000000
0.152533 0.900000 -0.750000 -0.000000 -0.000000 -1.000000
0.290279 1.000000 -0.750000 -0.000000 -0.000000 -1.000000
0.552620 0.675000 -0.500000 -0.599706 -0.746715 0.287695
0.272465 0.900000 -0.500000 -0.599706 -0.746715 0.287695
0.152533 0.900000 -0.750000 -0.599706 -0.746715 0.287695
0.432688 0.675000 -0.750000 -0.599706 -0.746715 0.287695
0.272465 0.900000 -0.500000 -0.565457 0.778893 0.271265
0.410211 1.000000 -0.500000 -0.565457 0.778893 0.271265
0.290279 1.000000 -0.750000 -0.565457 0.778893 0.271265
0.152533 0.900000 -0.750000 -0.565457 0.778893 0.271265
0.710211 0.750000 -0.500000 0.793017 0.475810 -0.380432
0.860211 0.500000 -0.500000 0.793017 0.475810 -0.380432
0.740279 0.500000 -0.750000 0.793017 0.475810 -0.380432
0.590279 0.750000 -0.750000 0.793017 0.475810 -0.380432
0.860211 0.500000 -0.500000 0.887308 0.177462 -0.425666
0.960211 0.000000 -0.500000 0.887308 0.177462 -0.425666
0.840279 0.000000 -0.750000 0.887308 0.177462 -0.425666
0.740279 0.500000 -0.750000 0.887308 0.177462 -0.425666
0.658591 0.000000 -0.750000 0.000000 -1.000000 0.000000
0.840279 0.000000 -0.750000 0.000000 -1.000000 0.000000
4 0 1 2 3
4 4 5 6 7
4 8 9 10 11
4 12 13 14 15
4 16 17 18 19
4 20 21 22 23
4 24 25 26 27
4 28 29 30 31
4 32 33 34 35
4 36 37 38 39
4 40 41 42 43
4 43 44 45 40
4 41 46 47 42
4 48 49 50 51
4 52 53 54 55
4 56 57 58 59
4 60 61 62 63
4 64 65 66 67
4 68 69 70 71
4 72 73 74 75
4 76 77 78 79
4 80 81 82 83
4 84 85 86 87
4 88 89 90 91
4 92 93 94 95
4 96 97 98 99
4 100 101 102 103
4 104 105 106 107
4 108 109 110 111
4 109 108 45 44
4 111 110 112 113
4 114 115 116 117
4 118 119 120 121
4 122 123 124 125
4 126 127 128 129
4 107 130 131 104
4 132 133 134 135
4 136 137 138 139
4 140 141 142 143
4 144 145 146 147
4 147 148 149 144
4 145 150 151 146
4 152 153 154 155
4 156 157 158 159
4 160 161 162 163
4 164 165 166 167
4 168 169 170 171
4 172 173 174 175
4 176 177 178 179
4 180 181 182 183
4 181 180 184 185
4 183 182 186 187
4 188 189 190 191
4 192 193 194 195
4 196 197 198 199
4 200 201 202 203
4 204 205 206 207
4 208 209 210 211
4 212 213 214 215
4 216 217 218 219
4 217 216 149 148
4 219 218 220 221
4 222 223 224 225
4 226 227 228 229
4 230 231 232 233
4 234 235 236 237
4 238 239 240 241
4 242 243 244 245
4 246 247 248 249
4 250 251 106 105
4 252 253 254 255
4 255 185 184 252
4 253 256 257 254
4 258 259 260 261
4 262 263 264 265
4 266 267 268 269
4 270 271 272 273
4 251 250 274 275
