ply
format ascii 1.0
comment Created by Blender 2.78 (sub 0) - www.blender.org, source file: 'slant.blend'
element vertex 18
property float x
property float y
property float z
property float nx
property float ny
property float nz
property uchar red
property uchar green
property uchar blue
element face 5
property list uchar uint vertex_indices
end_header
0.500000 0.000000 -0.500000 0.000000 -1.000000 0.000000 255 255 255
0.500000 0.000000 0.494994 0.000000 -1.000000 0.000000 255 255 255
-0.500000 0.000000 -0.500000 0.000000 -1.000000 0.000000 255 255 255
-0.500000 1.000000 -0.500000 -0.705330 0.000000 0.708879 255 255 255
-0.500000 0.000000 -0.500000 -0.705330 0.000000 0.708879 255 255 255
0.500000 0.000000 0.494994 -0.705330 0.000000 0.708879 255 255 255
0.500000 1.000000 0.494994 -0.705330 0.000000 0.708879 255 255 255
-0.500000 0.000000 -0.500000 0.000000 -0.000000 -1.000000 253 253 253
-0.500000 1.000000 -0.500000 0.000000 -0.000000 -1.000000 248 248 248
0.500000 1.000000 -0.500000 0.000000 -0.000000 -1.000000 223 223 223
0.500000 0.000000 -0.500000 0.000000 -0.000000 -1.000000 240 240 240
0.500000 0.000000 -0.500000 1.000000 -0.000000 0.000000 255 255 255
0.500000 1.000000 -0.500000 1.000000 -0.000000 0.000000 255 255 255
0.500000 1.000000 0.494994 1.000000 -0.000000 0.000000 255 255 255
0.500000 0.000000 0.494994 1.000000 -0.000000 0.000000 255 255 255
0.500000 1.000000 0.494994 0.000000 1.000000 -0.000000 255 255 255
0.500000 1.000000 -0.500000 0.000000 1.000000 -0.000000 255 255 255
-0.500000 1.000000 -0.500000 0.000000 1.000000 -0.000000 255 255 255
3 0 1 2
4 3 4 5 6
4 7 8 9 10
4 11 12 13 14
3 15 16 17
