ply
format ascii 1.0
comment Created by Blender 2.78 (sub 0) - www.blender.org, source file: ''
element vertex 82
property float x
property float y
property float z
property float nx
property float ny
property float nz
property uchar red
property uchar green
property uchar blue
element face 26
property list uchar uint vertex_indices
end_header
7.600000 0.000000 -0.400000 0.000000 -1.000000 0.000000 64 64 64
7.500000 0.000000 -0.400000 0.000000 -1.000000 0.000000 64 64 64
7.500000 0.000000 -0.500000 0.000000 -1.000000 0.000000 64 64 64
7.600000 0.000000 -0.500000 0.000000 -1.000000 0.000000 64 64 64
7.500000 0.000000 -0.400000 -1.000000 0.000000 0.000000 64 64 64
7.500000 1.000000 -0.400000 -1.000000 0.000000 0.000000 64 64 64
7.500000 1.000000 -0.500000 -1.000000 0.000000 0.000000 64 64 64
7.500000 0.000000 -0.500000 -1.000000 0.000000 0.000000 64 64 64
8.500000 0.000000 0.400000 1.000000 0.000000 0.000000 255 255 255
8.500000 1.000000 0.400000 1.000000 0.000000 0.000000 255 255 255
8.500000 1.000000 0.500000 1.000000 0.000000 0.000000 255 255 255
8.500000 0.000000 0.500000 1.000000 0.000000 0.000000 255 255 255
7.600000 0.000000 0.500000 -0.000000 0.000000 1.000000 64 64 64
7.600000 1.000000 0.500000 -0.000000 0.000000 1.000000 64 64 64
7.500000 1.000000 0.500000 -0.000000 0.000000 1.000000 64 64 64
7.500000 0.000000 0.500000 -0.000000 0.000000 1.000000 64 64 64
8.400000 1.000000 0.400000 0.000000 1.000000 0.000000 64 64 64
8.400000 1.000000 0.500000 0.000000 1.000000 0.000000 64 64 64
8.500000 1.000000 0.500000 0.000000 1.000000 0.000000 64 64 64
8.500000 1.000000 0.400000 0.000000 1.000000 0.000000 64 64 64
7.500000 0.000000 -0.500000 -0.000000 0.000000 -1.000000 64 64 64
7.500000 1.000000 -0.500000 -0.000000 0.000000 -1.000000 64 64 64
7.600000 1.000000 -0.500000 -0.000000 0.000000 -1.000000 64 64 64
7.600000 0.000000 -0.500000 -0.000000 0.000000 -1.000000 64 64 64
7.500000 1.000000 0.400000 0.000000 1.000000 0.000000 64 64 64
7.500000 1.000000 0.500000 0.000000 1.000000 0.000000 64 64 64
7.600000 1.000000 0.500000 0.000000 1.000000 0.000000 64 64 64
7.600000 1.000000 0.400000 0.000000 1.000000 0.000000 64 64 64
8.400000 0.000000 0.500000 -0.000000 0.000000 1.000000 255 255 255
8.400000 1.000000 0.500000 -0.000000 0.000000 1.000000 255 255 255
7.600000 1.000000 0.500000 -0.000000 0.000000 1.000000 255 255 255
7.600000 0.000000 0.500000 -0.000000 0.000000 1.000000 255 255 255
8.500000 1.000000 -0.500000 0.000000 0.000000 -1.000000 255 255 255
8.500000 0.000000 -0.500000 0.000000 0.000000 -1.000000 255 255 255
7.600000 0.000000 -0.500000 0.000000 0.000000 -1.000000 255 255 255
7.600000 1.000000 -0.500000 0.000000 0.000000 -1.000000 255 255 255
7.600000 0.000000 -0.400000 0.000000 -1.000000 0.000000 255 255 255
7.600000 0.000000 -0.500000 0.000000 -1.000000 0.000000 255 255 255
8.500000 0.000000 -0.500000 0.000000 -1.000000 0.000000 255 255 255
8.500000 0.000000 0.500000 -0.000000 0.000000 1.000000 64 64 64
8.500000 1.000000 0.500000 -0.000000 0.000000 1.000000 64 64 64
8.400000 1.000000 0.500000 -0.000000 0.000000 1.000000 64 64 64
8.400000 0.000000 0.500000 -0.000000 0.000000 1.000000 64 64 64
7.600000 1.000000 0.400000 0.000000 1.000000 0.000000 255 255 255
7.600000 1.000000 0.500000 0.000000 1.000000 0.000000 255 255 255
8.400000 1.000000 0.500000 0.000000 1.000000 0.000000 255 255 255
8.400000 1.000000 0.400000 0.000000 1.000000 0.000000 255 255 255
7.600000 1.000000 -0.400000 0.000000 1.000000 0.000000 255 255 255
8.500000 1.000000 -0.500000 0.000000 1.000000 0.000000 255 255 255
8.500000 0.000000 0.500000 0.000000 -1.000000 0.000000 64 64 64
8.400000 0.000000 0.500000 0.000000 -1.000000 0.000000 64 64 64
8.400000 0.000000 0.400000 0.000000 -1.000000 0.000000 64 64 64
8.500000 0.000000 0.400000 0.000000 -1.000000 0.000000 64 64 64
8.400000 0.000000 0.500000 0.000000 -1.000000 0.000000 255 255 255
7.600000 0.000000 0.500000 0.000000 -1.000000 0.000000 255 255 255
7.600000 0.000000 0.400000 0.000000 -1.000000 0.000000 255 255 255
8.400000 0.000000 0.400000 0.000000 -1.000000 0.000000 255 255 255
7.500000 1.000000 -0.400000 0.000000 1.000000 0.000000 255 255 255
7.500000 1.000000 0.400000 0.000000 1.000000 0.000000 255 255 255
8.500000 1.000000 0.400000 0.000000 1.000000 0.000000 255 255 255
7.500000 0.000000 0.500000 -1.000000 0.000000 0.000000 64 64 64
7.500000 1.000000 0.500000 -1.000000 0.000000 0.000000 64 64 64
7.500000 1.000000 0.400000 -1.000000 0.000000 0.000000 64 64 64
7.500000 0.000000 0.400000 -1.000000 0.000000 0.000000 64 64 64
7.600000 0.000000 0.500000 0.000000 -1.000000 0.000000 64 64 64
7.500000 0.000000 0.500000 0.000000 -1.000000 0.000000 64 64 64
7.500000 0.000000 0.400000 0.000000 -1.000000 0.000000 64 64 64
7.600000 0.000000 0.400000 0.000000 -1.000000 0.000000 64 64 64
7.500000 1.000000 -0.500000 0.000000 1.000000 0.000000 64 64 64
7.500000 1.000000 -0.400000 0.000000 1.000000 0.000000 64 64 64
7.600000 1.000000 -0.400000 0.000000 1.000000 0.000000 64 64 64
7.600000 1.000000 -0.500000 0.000000 1.000000 0.000000 64 64 64
8.500000 0.000000 0.400000 0.000000 -1.000000 0.000000 255 255 255
7.500000 0.000000 0.400000 -1.000000 0.000000 0.000000 255 255 255
7.500000 1.000000 0.400000 -1.000000 0.000000 0.000000 255 255 255
7.500000 1.000000 -0.400000 -1.000000 0.000000 0.000000 255 255 255
7.500000 0.000000 -0.400000 -1.000000 0.000000 0.000000 255 255 255
7.500000 0.000000 0.400000 0.000000 -1.000000 0.000000 255 255 255
7.500000 0.000000 -0.400000 0.000000 -1.000000 0.000000 255 255 255
7.600000 1.000000 -0.500000 0.000000 1.000000 0.000000 255 255 255
8.500000 0.000000 -0.500000 1.000000 0.000000 0.000000 255 255 255
8.500000 1.000000 -0.500000 1.000000 0.000000 0.000000 255 255 255
4 0 1 2 3
4 4 5 6 7
4 8 9 10 11
4 12 13 14 15
4 16 17 18 19
4 20 21 22 23
4 24 25 26 27
4 28 29 30 31
4 32 33 34 35
3 36 37 38
4 39 40 41 42
4 43 44 45 46
4 47 43 46 48
4 49 50 51 52
4 53 54 55 56
4 57 58 43 47
3 48 46 59
4 60 61 62 63
4 64 65 66 67
4 68 69 70 71
3 72 56 38
4 36 38 56 55
4 73 74 75 76
4 55 77 78 36
3 79 47 48
4 80 81 9 8
