ply
format ascii 1.0
comment Created by Blender 2.78 (sub 0) - www.blender.org, source file: ''
element vertex 34
property float x
property float y
property float z
property float nx
property float ny
property float nz
property uchar red
property uchar green
property uchar blue
element face 9
property list uchar uint vertex_indices
end_header
0.500000 0.000000 -0.500000 0.000000 -1.000000 0.000000 255 255 255
0.500000 0.000000 0.399998 0.000000 -1.000000 0.000000 255 255 255
-0.399998 0.000000 -0.500000 0.000000 -1.000000 0.000000 255 255 255
-0.500000 1.000000 -0.500000 -0.707107 0.000000 0.707107 64 64 64
-0.500000 0.000000 -0.500000 -0.707107 0.000000 0.707107 64 64 64
0.500000 0.000000 0.500000 -0.707107 0.000000 0.707107 64 64 64
0.500000 1.000000 0.500000 -0.707107 0.000000 0.707107 64 64 64
-0.399998 0.000000 -0.500000 0.000000 -0.000000 -1.000000 255 255 255
-0.399998 1.000000 -0.500000 0.000000 -0.000000 -1.000000 255 255 255
0.500000 1.000000 -0.500000 0.000000 -0.000000 -1.000000 255 255 255
0.500000 0.000000 -0.500000 0.000000 -0.000000 -1.000000 255 255 255
0.500000 0.000000 -0.500000 1.000000 -0.000000 0.000000 255 255 255
0.500000 1.000000 -0.500000 1.000000 -0.000000 0.000000 255 255 255
0.500000 1.000000 0.399998 1.000000 -0.000000 0.000000 255 255 255
0.500000 0.000000 0.399998 1.000000 -0.000000 0.000000 255 255 255
0.500000 1.000000 0.399998 0.000000 1.000000 -0.000000 255 255 255
0.500000 1.000000 -0.500000 0.000000 1.000000 -0.000000 255 255 255
-0.399998 1.000000 -0.500000 0.000000 1.000000 -0.000000 255 255 255
-0.500000 0.000000 -0.500000 0.000000 -0.000000 -1.000000 64 64 64
-0.500000 1.000000 -0.500000 0.000000 -0.000000 -1.000000 64 64 64
-0.399998 1.000000 -0.500000 0.000000 -0.000000 -1.000000 65 65 65
-0.399998 0.000000 -0.500000 0.000000 -0.000000 -1.000000 64 64 64
0.500000 1.000000 0.500000 1.000000 -0.000000 0.000000 64 64 64
0.500000 0.000000 0.500000 1.000000 -0.000000 0.000000 64 64 64
0.500000 0.000000 0.399998 1.000000 -0.000000 0.000000 64 64 64
0.500000 1.000000 0.399998 1.000000 -0.000000 0.000000 64 64 64
-0.500000 1.000000 -0.500000 0.000000 1.000000 -0.000000 64 64 64
0.500000 1.000000 0.500000 0.000000 1.000000 -0.000000 64 64 64
0.500000 1.000000 0.399998 0.000000 1.000000 -0.000000 64 64 64
-0.399998 1.000000 -0.500000 0.000000 1.000000 -0.000000 64 64 64
0.500000 0.000000 0.500000 -0.000000 -1.000000 0.000000 64 64 64
-0.500000 0.000000 -0.500000 -0.000000 -1.000000 0.000000 67 67 67
-0.399998 0.000000 -0.500000 -0.000000 -1.000000 0.000000 64 64 64
0.500000 0.000000 0.399998 -0.000000 -1.000000 0.000000 64 64 64
3 0 1 2
4 3 4 5 6
4 7 8 9 10
4 11 12 13 14
3 15 16 17
4 18 19 20 21
4 22 23 24 25
4 26 27 28 29
4 30 31 32 33
