ply
format ascii 1.0
comment Created by Blender 2.78 (sub 0) - www.blender.org, source file: ''
element vertex 44
property float x
property float y
property float z
property float nx
property float ny
property float nz
property uchar red
property uchar green
property uchar blue
element face 16
property list uchar uint vertex_indices
end_header
1.600000 0.000000 -0.400000 0.000000 -1.000000 -0.000000 255 255 255
2.500000 0.000000 0.500000 0.000000 -1.000000 -0.000000 255 255 255
1.500000 0.000000 0.500000 0.000000 -1.000000 -0.000000 255 255 255
1.500000 0.000000 -0.400000 -1.000000 0.000000 0.000000 64 64 64
1.500000 1.000000 -0.400000 -1.000000 0.000000 0.000000 64 64 64
1.500000 1.000000 -0.500000 -1.000000 0.000000 0.000000 64 64 64
1.500000 0.000000 -0.500000 -1.000000 0.000000 0.000000 64 64 64
2.500000 1.000000 -0.500000 0.000000 0.000000 -1.000000 255 255 255
2.500000 0.000000 -0.500000 0.000000 0.000000 -1.000000 255 255 255
1.600000 0.000000 -0.500000 0.000000 0.000000 -1.000000 255 255 255
1.600000 1.000000 -0.500000 0.000000 0.000000 -1.000000 255 255 255
1.600000 0.000000 -0.400000 0.000000 -1.000000 0.000000 64 64 64
1.500000 0.000000 -0.400000 0.000000 -1.000000 0.000000 64 64 64
1.500000 0.000000 -0.500000 0.000000 -1.000000 0.000000 64 64 64
1.600000 0.000000 -0.500000 0.000000 -1.000000 0.000000 64 64 64
2.500000 0.000000 -0.500000 1.000000 0.000000 0.000000 255 255 255
2.500000 1.000000 -0.500000 1.000000 0.000000 0.000000 255 255 255
2.500000 1.000000 0.500000 1.000000 0.000000 0.000000 255 255 255
2.500000 0.000000 0.500000 1.000000 0.000000 0.000000 255 255 255
1.500000 1.000000 -0.400000 0.000000 1.000000 -0.000000 64 64 64
1.600000 1.000000 -0.400000 0.000000 1.000000 -0.000000 64 64 64
1.600000 1.000000 -0.500000 0.000000 1.000000 -0.000000 64 64 64
1.500000 1.000000 -0.500000 0.000000 1.000000 -0.000000 64 64 64
2.500000 0.000000 0.500000 -0.000000 0.000000 1.000000 255 255 255
2.500000 1.000000 0.500000 -0.000000 0.000000 1.000000 255 255 255
1.500000 1.000000 0.500000 -0.000000 0.000000 1.000000 255 255 255
1.500000 0.000000 0.500000 -0.000000 0.000000 1.000000 255 255 255
1.500000 0.000000 -0.500000 -0.000000 0.000000 -1.000000 64 64 64
1.500000 1.000000 -0.500000 -0.000000 0.000000 -1.000000 64 64 64
1.600000 1.000000 -0.500000 -0.000000 0.000000 -1.000000 64 64 64
1.600000 0.000000 -0.500000 -0.000000 0.000000 -1.000000 64 64 64
1.600000 0.000000 -0.500000 -0.000000 -1.000000 -0.000000 255 255 255
2.500000 0.000000 -0.500000 -0.000000 -1.000000 -0.000000 255 255 255
1.600000 1.000000 -0.400000 -0.000000 1.000000 0.000000 255 255 255
1.500000 1.000000 -0.400000 -0.000000 1.000000 0.000000 255 255 255
1.500000 1.000000 0.500000 -0.000000 1.000000 0.000000 255 255 255
2.500000 1.000000 -0.500000 -0.000000 1.000000 0.000000 255 255 255
1.600000 1.000000 -0.500000 -0.000000 1.000000 0.000000 255 255 255
1.500000 0.000000 -0.400000 -0.000000 -1.000000 -0.000000 255 255 255
1.500000 0.000000 0.500000 -1.000000 0.000000 0.000000 255 255 255
1.500000 1.000000 0.500000 -1.000000 0.000000 0.000000 255 255 255
1.500000 1.000000 -0.400000 -1.000000 0.000000 0.000000 255 255 255
1.500000 0.000000 -0.400000 -1.000000 0.000000 0.000000 255 255 255
2.500000 1.000000 0.500000 -0.000000 1.000000 0.000000 255 255 255
3 0 1 2
4 3 4 5 6
4 7 8 9 10
4 11 12 13 14
4 15 16 17 18
4 19 20 21 22
4 23 24 25 26
4 27 28 29 30
3 31 32 0
3 33 34 35
3 36 37 33
3 38 0 2
4 39 40 41 42
3 43 36 33
3 43 33 35
3 32 1 0
