ply
format ascii 1.0
comment Created by Blender 2.78 (sub 0) - www.blender.org, source file: ''
element vertex 104
property float x
property float y
property float z
property float nx
property float ny
property float nz
property uchar red
property uchar green
property uchar blue
element face 30
property list uchar uint vertex_indices
end_header
9.600000 0.000000 -0.400000 0.000000 -1.000000 0.000000 64 64 64
9.500000 0.000000 -0.400000 0.000000 -1.000000 0.000000 64 64 64
9.500000 0.000000 -0.500000 0.000000 -1.000000 0.000000 64 64 64
9.600000 0.000000 -0.500000 0.000000 -1.000000 0.000000 64 64 64
9.500000 0.000000 -0.400000 -1.000000 0.000000 0.000000 64 64 64
9.500000 1.000000 -0.400000 -1.000000 0.000000 0.000000 64 64 64
9.500000 1.000000 -0.500000 -1.000000 0.000000 0.000000 64 64 64
9.500000 0.000000 -0.500000 -1.000000 0.000000 0.000000 64 64 64
10.500000 0.000000 0.400000 1.000000 0.000000 0.000000 64 64 64
10.500000 1.000000 0.400000 1.000000 0.000000 0.000000 64 64 64
10.500000 1.000000 0.500000 1.000000 0.000000 0.000000 64 64 64
10.500000 0.000000 0.500000 1.000000 0.000000 0.000000 64 64 64
9.600000 0.000000 0.500000 -0.000000 0.000000 1.000000 64 64 64
9.600000 1.000000 0.500000 -0.000000 0.000000 1.000000 64 64 64
9.500000 1.000000 0.500000 -0.000000 0.000000 1.000000 64 64 64
9.500000 0.000000 0.500000 -0.000000 0.000000 1.000000 64 64 64
10.400000 1.000000 0.400000 0.000000 1.000000 0.000000 64 64 64
10.400000 1.000000 0.500000 0.000000 1.000000 0.000000 64 64 64
10.500000 1.000000 0.500000 0.000000 1.000000 0.000000 64 64 64
10.500000 1.000000 0.400000 0.000000 1.000000 0.000000 64 64 64
10.500000 1.000000 -0.500000 0.000000 0.000000 -1.000000 64 64 64
10.500000 0.000000 -0.500000 0.000000 0.000000 -1.000000 64 64 64
10.400000 0.000000 -0.500000 0.000000 0.000000 -1.000000 64 64 64
10.400000 1.000000 -0.500000 0.000000 0.000000 -1.000000 64 64 64
9.500000 0.000000 -0.500000 -0.000000 0.000000 -1.000000 64 64 64
9.500000 1.000000 -0.500000 -0.000000 0.000000 -1.000000 64 64 64
9.600000 1.000000 -0.500000 -0.000000 0.000000 -1.000000 64 64 64
9.600000 0.000000 -0.500000 -0.000000 0.000000 -1.000000 64 64 64
9.500000 1.000000 0.400000 0.000000 1.000000 0.000000 64 64 64
9.500000 1.000000 0.500000 0.000000 1.000000 0.000000 64 64 64
9.600000 1.000000 0.500000 0.000000 1.000000 0.000000 64 64 64
9.600000 1.000000 0.400000 0.000000 1.000000 0.000000 64 64 64
10.400000 0.000000 0.500000 -0.000000 0.000000 1.000000 255 255 255
10.400000 1.000000 0.500000 -0.000000 0.000000 1.000000 255 255 255
9.600000 1.000000 0.500000 -0.000000 0.000000 1.000000 255 255 255
9.600000 0.000000 0.500000 -0.000000 0.000000 1.000000 255 255 255
10.400000 0.000000 -0.400000 0.000000 -1.000000 0.000000 255 255 255
9.600000 0.000000 -0.400000 0.000000 -1.000000 0.000000 255 255 255
9.600000 0.000000 -0.500000 0.000000 -1.000000 0.000000 255 255 255
10.400000 0.000000 -0.500000 0.000000 -1.000000 0.000000 255 255 255
10.400000 0.000000 -0.500000 0.000000 -1.000000 -0.000000 64 64 64
10.500000 0.000000 -0.500000 0.000000 -1.000000 -0.000000 64 64 64
10.500000 0.000000 -0.400000 0.000000 -1.000000 -0.000000 64 64 64
10.400000 0.000000 -0.400000 0.000000 -1.000000 -0.000000 64 64 64
10.500000 0.000000 0.500000 -0.000000 0.000000 1.000000 64 64 64
10.500000 1.000000 0.500000 -0.000000 0.000000 1.000000 64 64 64
10.400000 1.000000 0.500000 -0.000000 0.000000 1.000000 64 64 64
10.400000 0.000000 0.500000 -0.000000 0.000000 1.000000 64 64 64
9.600000 0.000000 -0.500000 -0.000000 0.000000 -1.000000 255 255 255
9.600000 1.000000 -0.500000 -0.000000 0.000000 -1.000000 255 255 255
10.400000 1.000000 -0.500000 -0.000000 0.000000 -1.000000 255 255 255
10.400000 0.000000 -0.500000 -0.000000 0.000000 -1.000000 255 255 255
9.600000 1.000000 0.400000 0.000000 1.000000 0.000000 255 255 255
9.600000 1.000000 0.500000 0.000000 1.000000 0.000000 255 255 255
10.400000 1.000000 0.500000 0.000000 1.000000 0.000000 255 255 255
10.400000 1.000000 0.400000 0.000000 1.000000 0.000000 255 255 255
9.600000 1.000000 -0.400000 0.000000 1.000000 0.000000 255 255 255
10.400000 1.000000 -0.400000 0.000000 1.000000 0.000000 255 255 255
10.500000 0.000000 0.500000 0.000000 -1.000000 0.000000 64 64 64
10.400000 0.000000 0.500000 0.000000 -1.000000 0.000000 64 64 64
10.400000 0.000000 0.400000 0.000000 -1.000000 0.000000 64 64 64
10.500000 0.000000 0.400000 0.000000 -1.000000 0.000000 64 64 64
10.400000 0.000000 0.500000 0.000000 -1.000000 0.000000 255 255 255
9.600000 0.000000 0.500000 0.000000 -1.000000 0.000000 255 255 255
9.600000 0.000000 0.400000 0.000000 -1.000000 0.000000 255 255 255
10.400000 0.000000 0.400000 0.000000 -1.000000 0.000000 255 255 255
9.500000 1.000000 -0.400000 0.000000 1.000000 0.000000 255 255 255
9.500000 1.000000 0.400000 0.000000 1.000000 0.000000 255 255 255
10.500000 1.000000 0.400000 0.000000 1.000000 0.000000 255 255 255
10.500000 1.000000 -0.400000 0.000000 1.000000 0.000000 255 255 255
10.500000 0.000000 -0.400000 1.000000 0.000000 0.000000 255 255 255
10.500000 1.000000 -0.400000 1.000000 0.000000 0.000000 255 255 255
10.500000 1.000000 0.400000 1.000000 0.000000 0.000000 255 255 255
10.500000 0.000000 0.400000 1.000000 0.000000 0.000000 255 255 255
9.500000 0.000000 0.500000 -1.000000 0.000000 0.000000 64 64 64
9.500000 1.000000 0.500000 -1.000000 0.000000 0.000000 64 64 64
9.500000 1.000000 0.400000 -1.000000 0.000000 0.000000 64 64 64
9.500000 0.000000 0.400000 -1.000000 0.000000 0.000000 64 64 64
9.600000 0.000000 0.500000 0.000000 -1.000000 0.000000 64 64 64
9.500000 0.000000 0.500000 0.000000 -1.000000 0.000000 64 64 64
9.500000 0.000000 0.400000 0.000000 -1.000000 0.000000 64 64 64
9.600000 0.000000 0.400000 0.000000 -1.000000 0.000000 64 64 64
10.500000 0.000000 -0.500000 1.000000 0.000000 0.000000 64 64 64
10.500000 1.000000 -0.500000 1.000000 0.000000 0.000000 64 64 64
10.500000 1.000000 -0.400000 1.000000 0.000000 0.000000 64 64 64
10.500000 0.000000 -0.400000 1.000000 0.000000 0.000000 64 64 64
10.400000 1.000000 -0.500000 0.000000 1.000000 0.000000 64 64 64
10.400000 1.000000 -0.400000 0.000000 1.000000 0.000000 64 64 64
10.500000 1.000000 -0.400000 0.000000 1.000000 0.000000 64 64 64
10.500000 1.000000 -0.500000 0.000000 1.000000 0.000000 64 64 64
9.500000 1.000000 -0.500000 0.000000 1.000000 0.000000 64 64 64
9.500000 1.000000 -0.400000 0.000000 1.000000 0.000000 64 64 64
9.600000 1.000000 -0.400000 0.000000 1.000000 0.000000 64 64 64
9.600000 1.000000 -0.500000 0.000000 1.000000 0.000000 64 64 64
9.600000 1.000000 -0.500000 0.000000 1.000000 0.000000 255 255 255
10.400000 1.000000 -0.500000 0.000000 1.000000 0.000000 255 255 255
10.500000 0.000000 0.400000 0.000000 -1.000000 0.000000 255 255 255
10.500000 0.000000 -0.400000 0.000000 -1.000000 0.000000 255 255 255
9.500000 0.000000 0.400000 -1.000000 0.000000 0.000000 255 255 255
9.500000 1.000000 0.400000 -1.000000 0.000000 0.000000 255 255 255
9.500000 1.000000 -0.400000 -1.000000 0.000000 0.000000 255 255 255
9.500000 0.000000 -0.400000 -1.000000 0.000000 0.000000 255 255 255
9.500000 0.000000 0.400000 0.000000 -1.000000 0.000000 255 255 255
9.500000 0.000000 -0.400000 0.000000 -1.000000 0.000000 255 255 255
4 0 1 2 3
4 4 5 6 7
4 8 9 10 11
4 12 13 14 15
4 16 17 18 19
4 20 21 22 23
4 24 25 26 27
4 28 29 30 31
4 32 33 34 35
4 36 37 38 39
4 40 41 42 43
4 44 45 46 47
4 48 49 50 51
4 52 53 54 55
4 56 52 55 57
4 58 59 60 61
4 62 63 64 65
4 66 67 52 56
4 57 55 68 69
4 70 71 72 73
4 74 75 76 77
4 78 79 80 81
4 82 83 84 85
4 86 87 88 89
4 90 91 92 93
4 94 56 57 95
4 96 65 36 97
4 65 64 37 36
4 98 99 100 101
4 64 102 103 37
