ply
format ascii 1.0
comment Created by Blender 2.78 (sub 0) - www.blender.org, source file: ''
element vertex 64
property float x
property float y
property float z
property float nx
property float ny
property float nz
property uchar red
property uchar green
property uchar blue
element face 22
property list uchar uint vertex_indices
end_header
2.500000 0.000000 2.400000 1.000000 0.000000 0.000000 64 64 64
2.500000 1.000000 2.400000 1.000000 0.000000 0.000000 65 65 65
2.500000 1.000000 2.500000 1.000000 0.000000 0.000000 64 64 64
2.500000 0.000000 2.500000 1.000000 0.000000 0.000000 64 64 64
1.600000 0.000000 2.500000 -0.000000 0.000000 1.000000 64 64 64
1.600000 1.000000 2.500000 -0.000000 0.000000 1.000000 64 64 64
1.500000 1.000000 2.500000 -0.000000 0.000000 1.000000 64 64 64
1.500000 0.000000 2.500000 -0.000000 0.000000 1.000000 64 64 64
1.500000 0.000000 1.600000 -1.000000 0.000000 0.000000 64 64 64
1.500000 1.000000 1.600000 -1.000000 0.000000 0.000000 64 64 64
1.500000 1.000000 1.500000 -1.000000 0.000000 0.000000 64 64 64
1.500000 0.000000 1.500000 -1.000000 0.000000 0.000000 64 64 64
2.500000 1.000000 1.500000 0.000000 0.000000 -1.000000 64 64 64
2.500000 0.000000 1.500000 0.000000 0.000000 -1.000000 64 64 64
1.600000 0.000000 1.500000 0.000000 0.000000 -1.000000 64 64 64
1.600000 1.000000 1.500000 0.000000 0.000000 -1.000000 64 64 64
1.600000 0.000000 1.600000 0.000000 -1.000000 0.000000 64 64 64
1.500000 0.000000 1.600000 0.000000 -1.000000 0.000000 64 64 64
1.500000 0.000000 1.500000 0.000000 -1.000000 0.000000 64 64 64
1.600000 0.000000 1.500000 0.000000 -1.000000 0.000000 64 64 64
1.600000 1.000000 1.600000 0.000000 1.000000 -0.000000 64 64 64
2.500000 1.000000 1.600000 0.000000 1.000000 -0.000000 64 64 64
2.500000 1.000000 1.500000 0.000000 1.000000 -0.000000 64 64 64
1.600000 1.000000 1.500000 0.000000 1.000000 -0.000000 64 64 64
1.500000 1.000000 1.600000 0.000000 1.000000 -0.000000 64 64 64
1.500000 1.000000 1.500000 0.000000 1.000000 -0.000000 64 64 64
2.500000 0.000000 1.500000 0.000000 -1.000000 -0.000000 64 64 64
2.500000 0.000000 1.600000 0.000000 -1.000000 -0.000000 64 64 64
1.500000 0.000000 1.500000 -0.000000 0.000000 -1.000000 64 64 64
1.500000 1.000000 1.500000 -0.000000 0.000000 -1.000000 64 64 64
2.500000 0.000000 2.500000 -0.000000 0.000000 1.000000 64 64 64
2.500000 1.000000 2.500000 -0.000000 0.000000 1.000000 64 64 64
2.500000 0.000000 2.500000 0.000000 -1.000000 0.000000 68 68 68
1.600000 0.000000 2.500000 0.000000 -1.000000 0.000000 64 64 64
1.600000 0.000000 2.400000 0.000000 -1.000000 0.000000 64 64 64
2.500000 0.000000 2.400000 0.000000 -1.000000 0.000000 64 64 64
1.500000 1.000000 2.500000 0.000000 1.000000 -0.000000 64 64 64
1.600000 1.000000 2.500000 0.000000 1.000000 -0.000000 64 64 64
1.600000 1.000000 2.400000 0.000000 1.000000 -0.000000 64 64 64
1.500000 1.000000 2.400000 0.000000 1.000000 -0.000000 64 64 64
2.500000 1.000000 2.500000 0.000000 1.000000 -0.000000 64 64 64
2.500000 1.000000 2.400000 0.000000 1.000000 -0.000000 65 65 65
1.500000 0.000000 2.500000 0.000000 -1.000000 0.000000 64 64 64
1.500000 0.000000 2.400000 0.000000 -1.000000 0.000000 64 64 64
1.500000 0.000000 2.500000 -1.000000 0.000000 0.000000 64 64 64
1.500000 1.000000 2.500000 -1.000000 0.000000 0.000000 64 64 64
1.500000 1.000000 2.400000 -1.000000 0.000000 0.000000 64 64 64
1.500000 0.000000 2.400000 -1.000000 0.000000 0.000000 64 64 64
2.500000 0.000000 1.600000 1.000000 0.000000 0.000000 255 255 255
2.500000 1.000000 1.600000 1.000000 0.000000 0.000000 255 255 255
2.500000 1.000000 2.400000 1.000000 0.000000 0.000000 255 255 255
2.500000 0.000000 2.400000 1.000000 0.000000 0.000000 255 255 255
2.500000 0.000000 1.500000 1.000000 0.000000 0.000000 64 64 64
2.500000 1.000000 1.500000 1.000000 0.000000 0.000000 64 64 64
2.500000 1.000000 1.600000 1.000000 0.000000 0.000000 64 64 64
2.500000 0.000000 1.600000 1.000000 0.000000 0.000000 64 64 64
2.500000 0.000000 2.400000 0.000000 -1.000000 0.000000 255 255 255
1.600000 0.000000 2.400000 0.000000 -1.000000 0.000000 255 255 255
1.600000 0.000000 1.600000 0.000000 -1.000000 0.000000 255 255 255
2.500000 0.000000 1.600000 0.000000 -1.000000 0.000000 255 255 255
1.600000 1.000000 2.400000 0.000000 1.000000 -0.000000 255 255 255
2.500000 1.000000 2.400000 0.000000 1.000000 -0.000000 255 255 255
2.500000 1.000000 1.600000 0.000000 1.000000 -0.000000 255 255 255
1.600000 1.000000 1.600000 0.000000 1.000000 -0.000000 255 255 255
4 0 1 2 3
4 4 5 6 7
4 8 9 10 11
4 12 13 14 15
4 16 17 18 19
4 20 21 22 23
4 24 20 23 25
4 19 26 27 16
4 28 29 15 14
4 30 31 5 4
4 32 33 34 35
4 36 37 38 39
4 37 40 41 38
4 33 42 43 34
4 44 45 46 47
4 48 49 50 51
4 52 53 54 55
4 56 57 58 59
4 39 38 20 24
4 60 61 62 63
4 34 43 17 16
4 47 46 9 8
