ply
format ascii 1.0
comment Created by Blender 2.78 (sub 0) - www.blender.org, source file: ''
element vertex 64
property float x
property float y
property float z
property float nx
property float ny
property float nz
property uchar red
property uchar green
property uchar blue
element face 24
property list uchar uint vertex_indices
end_header
3.600000 0.000000 -0.400000 0.000000 -1.000000 0.000000 67 67 67
3.500000 0.000000 -0.400000 0.000000 -1.000000 0.000000 64 64 64
3.500000 0.000000 -0.500000 0.000000 -1.000000 0.000000 64 64 64
3.600000 0.000000 -0.500000 0.000000 -1.000000 0.000000 76 76 76
3.500000 0.000000 -0.400000 -1.000000 0.000000 0.000000 64 64 64
3.500000 1.000000 -0.400000 -1.000000 0.000000 0.000000 64 64 64
3.500000 1.000000 -0.500000 -1.000000 0.000000 0.000000 64 64 64
3.500000 0.000000 -0.500000 -1.000000 0.000000 0.000000 64 64 64
4.500000 0.000000 0.400000 1.000000 0.000000 0.000000 64 64 64
4.500000 1.000000 0.400000 1.000000 0.000000 0.000000 64 64 64
4.500000 1.000000 0.500000 1.000000 0.000000 0.000000 64 64 64
4.500000 0.000000 0.500000 1.000000 0.000000 0.000000 64 64 64
4.400000 1.000000 0.400000 -0.000000 1.000000 0.000000 255 255 255
3.600000 1.000000 -0.400000 -0.000000 1.000000 0.000000 255 255 255
3.500000 1.000000 0.500000 -0.000000 1.000000 0.000000 255 255 255
4.400000 1.000000 0.400000 0.000000 1.000000 0.000000 64 64 64
4.400000 1.000000 0.500000 0.000000 1.000000 0.000000 64 64 64
4.500000 1.000000 0.500000 0.000000 1.000000 0.000000 64 64 64
4.500000 1.000000 0.400000 0.000000 1.000000 0.000000 64 64 64
3.500000 0.000000 -0.500000 -0.000000 0.000000 -1.000000 64 64 64
3.500000 1.000000 -0.500000 -0.000000 0.000000 -1.000000 64 64 64
3.600000 1.000000 -0.500000 -0.000000 0.000000 -1.000000 64 64 64
3.600000 0.000000 -0.500000 -0.000000 0.000000 -1.000000 76 76 76
3.500000 1.000000 0.500000 -1.000000 0.000000 0.000000 255 255 255
3.500000 1.000000 -0.400000 -1.000000 0.000000 0.000000 255 255 255
3.500000 0.000000 -0.400000 -1.000000 0.000000 0.000000 255 255 255
3.500000 0.000000 0.500000 -1.000000 0.000000 0.000000 255 255 255
4.400000 1.000000 0.500000 -0.000000 1.000000 0.000000 255 255 255
4.500000 1.000000 -0.500000 0.000000 0.000000 -1.000000 255 255 255
4.500000 0.000000 -0.500000 0.000000 0.000000 -1.000000 255 255 255
3.600000 0.000000 -0.500000 0.000000 0.000000 -1.000000 255 255 255
3.600000 1.000000 -0.500000 0.000000 0.000000 -1.000000 255 255 255
4.500000 0.000000 0.500000 -0.000000 0.000000 1.000000 64 64 64
4.500000 1.000000 0.500000 -0.000000 0.000000 1.000000 64 64 64
4.400000 1.000000 0.500000 -0.000000 0.000000 1.000000 64 64 64
4.400000 0.000000 0.500000 -0.000000 0.000000 1.000000 64 64 64
4.500000 1.000000 0.400000 0.000000 1.000000 -0.000000 255 255 255
4.500000 1.000000 -0.500000 0.000000 1.000000 -0.000000 255 255 255
4.500000 0.000000 0.500000 0.000000 -1.000000 0.000000 64 64 64
4.400000 0.000000 0.500000 0.000000 -1.000000 0.000000 64 64 64
4.400000 0.000000 0.400000 0.000000 -1.000000 0.000000 64 64 64
4.500000 0.000000 0.400000 0.000000 -1.000000 0.000000 64 64 64
4.500000 0.000000 0.400000 0.000000 -1.000000 0.000000 255 255 255
4.400000 0.000000 0.400000 0.000000 -1.000000 0.000000 255 255 255
4.500000 0.000000 -0.500000 0.000000 -1.000000 0.000000 255 255 255
3.600000 0.000000 -0.400000 0.000000 -1.000000 0.000000 255 255 255
3.600000 0.000000 -0.500000 0.000000 -1.000000 0.000000 255 255 255
4.400000 0.000000 0.500000 -0.000000 0.000000 1.000000 255 255 255
4.400000 1.000000 0.500000 -0.000000 0.000000 1.000000 255 255 255
3.500000 1.000000 0.500000 -0.000000 0.000000 1.000000 255 255 255
3.500000 0.000000 0.500000 -0.000000 0.000000 1.000000 255 255 255
4.400000 0.000000 0.500000 0.000000 -1.000000 0.000000 255 255 255
3.500000 0.000000 0.500000 0.000000 -1.000000 0.000000 255 255 255
4.500000 0.000000 -0.500000 1.000000 0.000000 0.000000 255 255 255
4.500000 1.000000 -0.500000 1.000000 0.000000 0.000000 255 255 255
4.500000 1.000000 0.400000 1.000000 0.000000 0.000000 255 255 255
4.500000 0.000000 0.400000 1.000000 0.000000 0.000000 255 255 255
3.500000 1.000000 -0.500000 0.000000 1.000000 0.000000 64 64 64
3.500000 1.000000 -0.400000 0.000000 1.000000 0.000000 65 65 65
3.600000 1.000000 -0.400000 0.000000 1.000000 0.000000 64 64 64
3.600000 1.000000 -0.500000 0.000000 1.000000 0.000000 64 64 64
3.500000 0.000000 -0.400000 0.000000 -1.000000 0.000000 255 255 255
3.600000 1.000000 -0.500000 0.000000 1.000000 0.000000 255 255 255
3.500000 1.000000 -0.400000 0.000000 1.000000 -0.000000 255 255 255
4 0 1 2 3
4 4 5 6 7
4 8 9 10 11
3 12 13 14
4 15 16 17 18
4 19 20 21 22
4 23 24 25 26
3 27 12 14
4 28 29 30 31
4 32 33 34 35
3 12 36 37
4 38 39 40 41
3 42 43 44
3 45 46 44
3 43 45 44
4 47 48 49 50
3 51 52 43
4 53 54 55 56
4 57 58 59 60
3 52 61 45
3 62 13 37
3 14 13 63
3 13 12 37
3 43 52 45
